<svg id="trim_area" data-name="trim area" xmlns="http://www.w3.org/2000/svg" viewBox="0 0 192 192"><defs><style>.cls-1{fill:none;stroke:#ff5252;stroke-miterlimit:10;stroke-width:3px;}</style></defs><circle class="cls-1" cx="95.71" cy="96" r="64"/><polygon class="cls-1" points="104.35 67.45 87.07 67.45 72.11 76.09 63.47 91.05 63.47 108.33 72.11 123.3 87.07 131.93 104.35 131.93 119.31 123.3 127.95 108.33 127.95 91.05 119.31 76.09 104.35 67.45"/><line class="cls-1" x1="119.31" y1="123.29" x2="67.93" y2="153.67"/><line class="cls-1" x1="104.35" y1="131.93" x2="42.74" y2="131.93"/><line class="cls-1" x1="87.07" y1="131.93" x2="31.78" y2="98.98"/><line class="cls-1" x1="72.11" y1="123.29" x2="38.76" y2="66.76"/><line class="cls-1" x1="63.47" y1="108.33" x2="62.46" y2="41.31"/><line class="cls-1" x1="63.47" y1="91.05" x2="97.37" y2="32"/><line class="cls-1" x1="72.11" y1="76.09" x2="130.47" y2="42.26"/><line class="cls-1" x1="87.07" y1="67.45" x2="152.63" y2="66.72"/><line class="cls-1" x1="104.35" y1="67.45" x2="159.71" y2="99.08"/><line class="cls-1" x1="119.31" y1="76.09" x2="150.17" y2="130.04"/><line class="cls-1" x1="127.95" y1="108.33" x2="98.03" y2="159.96"/></svg>