<svg id="trim_area" data-name="trim area" xmlns="http://www.w3.org/2000/svg" viewBox="0 0 192 192"><defs><style>.cls-1{fill:#ff5252;}.cls-2{fill:#fff;stroke:#000;stroke-miterlimit:10;stroke-width:0.75px;}</style></defs><path class="cls-1" d="M67.42,45.52h7.92a2,2,0,0,1,2,2V170a2,2,0,0,1-2,2h-12a2,2,0,0,1-2-2V51.57A6.06,6.06,0,0,1,67.42,45.52Z"/><path class="cls-1" d="M128.24,102.68H79.69a4.08,4.08,0,0,1-4.08-4.08V50.05A4.08,4.08,0,0,1,79.69,46h48.55a4.06,4.06,0,0,1,4.07,4.07V98.6A4.08,4.08,0,0,1,128.24,102.68Z"/><circle class="cls-2" cx="100.39" cy="73.87" r="20.5"/><polygon class="cls-2" points="103.15 64.72 97.62 64.72 92.83 67.49 90.06 72.28 90.06 77.82 92.83 82.61 97.62 85.38 103.15 85.38 107.95 82.61 110.71 77.82 110.71 72.28 107.95 67.49 103.15 64.72"/><line class="cls-2" x1="107.95" y1="82.61" x2="92.01" y2="92.03"/><line class="cls-2" x1="103.15" y1="85.38" x2="82.94" y2="85.38"/><line class="cls-2" x1="97.62" y1="85.38" x2="79.91" y2="74.82"/><line class="cls-2" x1="92.83" y1="82.61" x2="81.99" y2="64.24"/><line class="cls-2" x1="90.06" y1="77.82" x2="89.73" y2="56.35"/><line class="cls-2" x1="90.06" y1="72.28" x2="100.92" y2="53.36"/><line class="cls-2" x1="92.83" y1="67.49" x2="111.52" y2="56.65"/><line class="cls-2" x1="97.62" y1="64.72" x2="118.62" y2="64.49"/><line class="cls-2" x1="103.15" y1="64.72" x2="120.89" y2="74.85"/><line class="cls-2" x1="107.95" y1="67.49" x2="117.83" y2="84.77"/><line class="cls-2" x1="110.71" y1="77.82" x2="101.13" y2="94.35"/><circle class="cls-2" cx="122.74" cy="51.51" r="2.73"/></svg>